P1
83 9
1111100011110000110000011000011110001100001111100011100011111100111100
0111100000000111111011111100111000011110011111100110000111111011000001
1111101100110110011000110011001101100110111100011111100000110111000011
0000011000000000110110011011001100011001100110110011000110000100110000
0110110000011111001111100000110011111101111110111111111111011001100011
0000001110011110011111101111110111111000011001111110011111011111111111
0011001100011000000110000001101111110000011011001100001100110011000001
1001111011000001100110001100000110000000110001100000001101100110001100
0110011000001101100111100000111111001111000111100111111000110001111110
1111110001100011111101111110110011110000001111001111110111111001111000
01100001111000111100001100001111000111100000000